<svg width="151" height="273" viewBox="0 0 151 273" fill="none" xmlns="http://www.w3.org/2000/svg">
<path d="M11.0067 131.772H3.22217V136.436H11.0067V131.772Z" fill="white"/>
<path d="M137.76 136.436H126.817V131.772H137.76V136.436ZM123.658 136.436H112.715V131.772H123.658V136.436ZM109.589 136.436H98.6459V131.772H109.589V136.436ZM95.4875 136.436H84.5445V131.772H95.4875V136.436ZM81.4179 136.436H70.475V131.772H81.4179V136.436ZM67.3484 136.436H56.4055V131.772H67.3484V136.436ZM53.247 136.436H42.3041V131.772H53.247V136.436ZM39.1775 136.436H28.2346V131.772H39.1775V136.436ZM25.0761 136.436H14.165V131.772H25.108V136.436H25.0761Z" fill="white"/>
<path d="M148.671 131.772H140.886V136.436H148.671V131.772Z" fill="white"/>
<path d="M75.7395 168.381C71.6239 168.381 67.4126 164.516 66.9341 164.101L68.5293 162.407L70.0287 160.619C70.0287 160.619 69.9968 160.587 69.9649 160.555C69.9968 160.587 70.8901 161.194 72.8682 161.226C73.0596 160.938 73.2191 160.139 73.251 159.341C73.1872 158.382 73.1872 157.424 73.1872 156.498V150.588H77.8451V157.839V157.871C77.877 158.127 77.9089 158.574 77.9089 159.085C78.0047 160.427 78.1323 161.002 78.2599 161.226C78.3237 161.226 78.4832 161.257 78.6746 161.257C80.3336 161.257 81.3864 160.587 81.4183 160.587L84.3854 164.196C83.9387 164.58 79.8551 168.381 75.7395 168.381Z" fill="white"/>
<path d="M75.6436 273L73.5379 268.592C73.1232 267.761 63.6797 247.54 63.6797 215.212C63.6797 194.16 68.7524 179.945 71.7832 173.364C72.4213 171.959 73.1232 167.966 73.4422 165.761L75.1969 152.664L78.0363 165.57C78.1001 165.793 78.132 166.145 78.2597 166.879C78.483 168.381 79.0892 172.374 79.6315 173.524C83.3642 181.223 87.7989 194.703 87.7989 215.148C87.7989 247.252 78.164 267.761 77.7492 268.624L75.6436 273ZM75.6755 176.08C72.8041 182.628 68.3695 195.821 68.3695 215.18C68.3695 236.934 72.8998 253.258 75.6755 261.18C78.5149 253.194 83.1409 236.775 83.1409 215.084C83.109 196.045 79.1211 183.427 75.6755 176.08Z" fill="white"/>
<path d="M131.794 242.397L127.487 240.065C126.753 239.65 109.079 229.907 92.3294 206.747C82.0245 192.499 78.1322 180.776 76.6966 173.46C76.4414 172.151 75.58 170.298 75.0376 169.052C74.5909 168.062 74.3676 167.582 74.2719 167.103L73.1553 161.13L77.9727 164.803C78.0046 164.835 80.876 167.007 82.9497 168.221C88.5009 171.416 99.3801 179.019 110.164 193.937C127.009 217.257 130.741 236.807 130.901 237.605L131.794 242.397ZM81.3545 172.662C82.7264 179.53 86.3953 190.487 96.1578 203.968C107.069 219.077 118.522 228.341 124.839 232.782C122.574 225.434 117.342 211.794 106.399 196.652C96.5725 183.076 86.7462 175.92 81.3545 172.662Z" fill="white"/>
<path d="M138.845 190.87C131.954 190.87 120.723 190.008 107.356 185.759C93.7968 181.446 85.6295 175.696 81.1948 171.607C80.3973 170.905 78.4192 169.659 77.2069 168.892C76.0903 168.221 75.7712 167.998 75.516 167.742L68.9438 161.641L77.6535 163.781C79.1849 164.164 81.8329 164.643 82.8857 164.516C88.0222 163.909 98.8057 163.589 113.003 168.093C135.112 175.121 146.916 186.014 147.395 186.462L150.968 189.816L146.119 190.487C145.895 190.519 143.247 190.87 138.845 190.87ZM85.2466 168.956C89.5217 172.63 96.9233 177.517 108.76 181.287C121.138 185.216 132.4 186.238 139.579 186.174C133.772 182.053 124.041 176.463 111.599 172.534C99.7309 168.764 90.5426 168.573 85.2466 168.956Z" fill="white"/>
<path d="M82.694 168.157C80.9712 168.157 77.6532 168.062 77.2066 168.062L64.7642 167.327L76.6323 163.525C77.6213 163.206 79.2803 162.503 79.9184 161.896C82.2793 159.66 86.4586 156.434 92.9351 153.846C104.58 149.15 113.353 149.629 113.704 149.661L118.586 149.949L115.268 153.559C115.012 153.846 108.951 160.363 97.3697 165.027C92.1694 167.135 87.2243 168.189 82.7578 168.189C82.7578 168.157 82.7259 168.157 82.694 168.157ZM106.43 154.836C103.24 155.348 99.1882 156.338 94.6579 158.159C90.5742 159.82 87.5434 161.705 85.3739 163.366C87.99 163.078 91.4356 162.375 95.6469 160.682C100.145 158.83 103.782 156.689 106.43 154.836Z" fill="white"/>
<path d="M19.5889 242.397L20.4822 237.573C20.6417 236.743 24.3744 217.224 41.2195 193.905C51.5244 179.657 61.9888 172.086 67.3167 168.86C70.0605 167.199 73.4741 164.771 73.5061 164.771L78.1959 161.449L77.1431 167.103C77.0474 167.614 76.824 168.093 76.3455 169.084C75.7712 170.33 74.8779 172.214 74.5908 173.588C73.1232 180.871 69.2629 192.563 58.9899 206.747C42.2724 229.907 24.6296 239.65 23.864 240.065L19.5889 242.397ZM70.0285 172.661C69.9328 172.725 69.8371 172.789 69.7414 172.853C64.7006 175.92 54.8105 183.075 44.9842 196.652C34.0412 211.794 28.809 225.434 26.5439 232.782C32.8608 228.341 44.3461 219.045 55.2253 203.999C64.9878 190.487 68.6886 179.498 70.0285 172.661Z" fill="white"/>
<path d="M12.5381 190.87C8.1354 190.87 5.4874 190.519 5.23217 190.487L0.382812 189.816L3.95602 186.462C4.43458 186.015 16.2389 175.121 38.3482 168.094C52.2901 163.653 62.9459 163.909 68.0505 164.452C69.3904 164.58 72.3255 164.101 73.8569 163.749L82.2476 161.896L75.9626 167.774C75.6754 168.03 75.3564 168.221 74.2398 168.86C73.2827 169.403 71.3046 170.553 70.7942 171.033C66.3277 175.281 58.0327 181.319 43.9951 185.759C30.6275 190.008 19.4293 190.87 12.5381 190.87ZM11.7724 186.174C18.9507 186.206 30.2127 185.216 42.5913 181.287C54.3319 177.549 61.7335 172.726 66.1043 168.956C60.9359 168.573 51.6839 168.733 39.7519 172.534C27.3414 176.495 17.6108 182.054 11.7724 186.174Z" fill="white"/>
<path d="M68.6567 168.157C65.3707 168.157 60.3618 167.55 53.9811 164.995C42.4 160.331 36.3383 153.782 36.0831 153.527L32.7651 149.917L37.6464 149.629C37.9973 149.597 46.7708 149.118 58.4157 153.814C65.8173 156.785 70.22 160.618 72.23 162.663C72.5809 162.886 73.7613 163.238 74.6865 163.43L92.2335 167.007L74.3675 168.062C74.208 168.062 73.8889 168.062 72.7404 168.094C71.6876 168.094 70.2519 168.125 69.55 168.157C69.2948 168.157 68.9758 168.157 68.6567 168.157ZM44.9523 154.804C47.6003 156.657 51.2373 158.83 55.7677 160.65C59.9151 162.311 63.3607 163.078 66.0406 163.334C63.9031 161.705 60.8723 159.788 56.7567 158.127C52.1626 156.306 48.1108 155.316 44.9523 154.804Z" fill="white"/>
<path d="M42.1125 76.0607H37.4546C37.4546 76.0607 37.4546 72.5787 37.4546 71.4926C37.4546 67.6911 37.7098 63.6661 38.2522 59.5772C38.8264 55.0091 39.7197 50.3132 40.9321 45.6812C41.9211 41.8478 44.2182 34.9158 44.3139 34.6283L48.7485 36.0978C48.7166 36.1616 46.4195 43.1575 45.4624 46.8312C44.3139 51.2715 43.4525 55.7757 42.9101 60.1522C42.3997 64.0494 42.1763 67.8509 42.1763 71.4926C42.1125 72.5787 42.1125 76.0607 42.1125 76.0607Z" fill="white"/>
<path d="M54.8744 22.4252L50.8545 20.0613C52.9282 16.5154 55.7677 12.5223 58.0966 9.83899C63.6798 3.41809 69.7734 0 75.6755 0C81.8648 0 88.1499 3.38615 93.8287 9.83899C95.8067 12.0751 98.9971 16.4516 100.911 19.5502L96.9234 22.0099C95.1687 19.1349 92.1378 14.9821 90.3193 12.9376C85.5338 7.53897 80.4611 4.66394 75.6436 4.66394C71.1133 4.66394 66.264 7.50702 61.5741 12.9057C59.5004 15.3654 56.7886 19.1669 54.8744 22.4252Z" fill="white"/>
<path d="M113.928 75.0703H109.27V69.7675C109.27 66.6369 109.079 63.4105 108.728 60.0882C108.249 55.7118 107.483 51.2715 106.399 46.8311C105.314 42.3908 102.889 35.4908 102.857 35.4269L107.26 33.8616C107.356 34.1491 109.812 41.0811 110.929 45.745C112.046 50.3451 112.875 55.009 113.354 59.5771C113.737 63.0271 113.928 66.4452 113.928 69.7355V75.0703Z" fill="white"/>
<path d="M75.8032 53.7951L72.5171 53.2201C71.9429 53.1243 58.001 50.5687 47.6961 40.2505C37.3912 29.9324 34.8708 15.9725 34.7432 15.3975L34.1689 12.1072L37.455 12.6822C38.0293 12.778 51.9712 15.3336 62.2761 25.6518C72.5809 35.9699 75.1013 49.9298 75.2289 50.5048L75.8032 53.7951ZM51.0141 36.9602C57.2353 43.1894 65.1793 46.32 69.7096 47.6936C68.3377 43.1575 65.2112 35.2032 58.99 28.974C52.7369 22.7128 44.8248 19.6142 40.2944 18.2406C41.6663 22.7767 44.7929 30.699 51.0141 36.9602Z" fill="white"/>
<path d="M75.1968 53.7951L75.771 50.5048C75.8668 49.9298 78.419 35.9699 88.7239 25.6518C99.0288 15.3336 112.971 12.81 113.545 12.6822L116.831 12.1072L116.257 15.3975C116.161 15.9725 113.609 29.9324 103.304 40.2505C92.999 50.5687 79.0571 53.0923 78.4829 53.2201L75.1968 53.7951ZM110.706 18.2406C106.175 19.6142 98.2312 22.7448 92.01 28.974C85.7888 35.2032 82.6622 43.1575 81.2904 47.6936C85.8207 46.32 93.7647 43.1894 99.9859 36.9602C106.239 30.699 109.366 22.7767 110.706 18.2406Z" fill="white"/>
<path d="M72.1021 114.107L73.761 110.114C74.0163 109.475 80.4927 94.237 101.39 79.0952C124.679 62.1964 144.204 58.4908 145.002 58.3311L149.819 57.4366L147.49 61.7492C147.076 62.4839 137.345 80.1813 114.215 96.9523C101.517 106.152 89.011 111.647 77.1109 113.212C76.7919 113.244 76.5048 113.276 76.3771 113.308L72.1021 114.107ZM140.216 64.4326C132.879 66.7006 119.256 71.9396 104.133 82.8966C90.6062 92.7037 83.4278 102.607 80.2056 107.941C90.2233 105.897 100.72 100.945 111.439 93.1509C126.53 82.2258 135.782 70.7576 140.216 64.4326Z" fill="white"/>
<path d="M77.6854 114.107L73.4422 113.308C73.3146 113.276 73.0275 113.244 72.7084 113.212C60.7765 111.615 48.3021 106.152 35.6045 96.9523C12.5062 80.1813 2.74371 62.4839 2.32897 61.7492L0 57.4366L4.81745 58.3311C5.64695 58.4908 25.1401 62.2284 48.4297 79.0952C69.3266 94.237 75.7712 109.475 76.0583 110.114L77.6854 114.107ZM9.603 64.4326C14.0376 70.7576 23.3216 82.2577 38.3482 93.1509C49.0678 100.913 59.5641 105.897 69.5819 107.941C66.3596 102.607 59.1813 92.7037 45.6541 82.8966C30.5637 71.9396 16.9408 66.7006 9.603 64.4326Z" fill="white"/>
<path d="M77.1747 123.211H72.5167C72.5167 123.179 72.5167 119.729 72.1339 116.758C72.0701 116.183 72.0063 115.64 71.9744 115.129C71.9105 114.49 71.8148 113.66 71.7191 113.148C71.4001 113.053 70.9534 112.957 70.5068 112.861C69.8368 112.733 69.3264 112.637 69.103 112.605L69.9006 108.005C70.1878 108.037 70.7939 108.133 71.4639 108.293C72.8996 108.548 74.3033 108.74 74.75 108.74C75.42 108.74 77.6213 108.421 79.2165 108.165C79.376 108.133 79.5036 108.133 79.5993 108.101L80.365 112.733C80.3012 112.733 80.1736 112.765 80.046 112.797C79.376 112.925 78.6103 113.085 78.036 113.212C77.9403 113.723 77.8765 114.458 77.8127 115.065C77.7489 115.608 77.717 116.183 77.6213 116.758C77.1747 119.665 77.1747 123.147 77.1747 123.211Z" fill="white"/>
</svg>
