<svg width="253" height="284" viewBox="0 0 253 284" fill="none" xmlns="http://www.w3.org/2000/svg">
<path d="M97.071 156.497H91.8818C91.8818 156.497 91.8818 153.35 91.8818 152.395C91.8818 148.93 92.1306 145.288 92.5927 141.576C93.1258 137.403 93.9433 133.196 95.0451 128.953C95.9337 125.487 98.0307 119.194 98.1373 118.946L103.078 120.573C103.042 120.643 100.945 126.937 100.092 130.225C99.0614 134.221 98.2795 138.252 97.7819 142.212C97.3198 145.712 97.1066 149.142 97.1066 152.395C97.071 153.35 97.071 156.497 97.071 156.497Z" fill="white"/>
<path d="M108.622 108.303L104.144 105.687C106.028 102.469 108.658 98.8272 110.755 96.3875C115.944 90.4472 121.595 87.3357 127.104 87.3357C132.862 87.3357 138.691 90.4472 143.987 96.3875C145.8 98.4383 148.714 102.398 150.491 105.227L146.049 107.95C144.449 105.369 141.748 101.656 140.113 99.8173C137.127 96.4936 132.471 92.5334 127.14 92.5334C122.128 92.5334 117.615 96.4936 114.7 99.8173C112.781 101.974 110.328 105.404 108.622 108.303Z" fill="white"/>
<path d="M162.362 155.613H157.173V150.84C157.173 148.046 156.996 145.112 156.676 142.177C156.249 138.252 155.538 134.256 154.579 130.261C153.619 126.265 151.415 120.078 151.38 120.007L156.285 118.274C156.391 118.522 158.595 124.816 159.626 129.059C160.656 133.231 161.403 137.474 161.829 141.611C162.185 144.758 162.362 147.87 162.362 150.84V155.613Z" fill="white"/>
<path d="M127.815 136.979L124.154 136.343C123.621 136.236 110.826 133.938 101.336 124.497C91.8462 115.057 89.5359 102.328 89.4293 101.797L88.7896 98.1553L92.4504 98.7917C92.9835 98.8978 105.779 101.196 115.269 110.637C124.758 120.078 127.069 132.807 127.175 133.337L127.815 136.979ZM95.6848 104.979C97.0354 109.116 99.8077 115.622 105.032 120.82C110.257 126.018 116.797 128.776 120.955 130.119C119.605 125.982 116.832 119.476 111.608 114.279C106.383 109.081 99.8432 106.323 95.6848 104.979Z" fill="white"/>
<path d="M126.074 136.979L126.713 133.337C126.82 132.807 129.13 120.078 138.62 110.637C148.11 101.196 160.905 98.8978 161.438 98.7917L165.099 98.1553L164.459 101.797C164.353 102.328 162.043 115.057 152.553 124.497C143.063 133.938 130.268 136.236 129.735 136.343L126.074 136.979ZM158.204 105.015C154.046 106.358 147.506 109.116 142.281 114.314C137.056 119.512 134.284 126.018 132.933 130.155C137.092 128.811 143.632 126.053 148.856 120.855C154.081 115.658 156.853 109.152 158.204 105.015Z" fill="white"/>
<path d="M123.088 191.467L124.936 187.047C125.185 186.446 131.12 172.585 150.207 158.831C171.461 143.521 189.303 140.126 190.05 139.985L195.417 138.995L192.822 143.768C192.467 144.44 183.545 160.493 162.433 175.697C150.811 184.077 139.402 189.027 128.49 190.477C128.206 190.512 127.993 190.547 127.851 190.583L123.088 191.467ZM184.541 146.88C177.681 149.107 166.023 153.845 153.228 163.038C141.712 171.348 135.314 179.657 132.187 184.572C140.895 182.627 150.029 178.243 159.341 171.525C172.101 162.331 180.276 152.714 184.541 146.88Z" fill="white"/>
<path d="M129.735 191.467L125.007 190.583C124.865 190.547 124.652 190.547 124.368 190.477C113.456 189.027 102.012 184.077 90.4247 175.697C69.3125 160.493 60.3914 144.44 60.036 143.768L57.4414 138.995L62.8083 139.985C63.5547 140.126 81.3969 143.521 102.651 158.831C121.738 172.585 127.673 186.446 127.922 187.047L129.735 191.467ZM68.2818 146.88C72.5824 152.749 80.7216 162.367 93.4813 171.56C102.793 178.243 111.892 182.627 120.6 184.607C117.472 179.657 111.039 171.312 99.5946 163.074C86.7638 153.845 75.1415 149.107 68.2818 146.88Z" fill="white"/>
<path d="M128.917 199.069H123.728C123.728 199.033 123.728 195.922 123.372 193.305C123.301 192.81 123.266 192.28 123.195 191.82C123.159 191.36 123.088 190.795 123.017 190.37C122.804 190.3 122.519 190.264 122.271 190.194C121.702 190.088 121.24 190.017 120.956 189.946L121.844 184.854C122.128 184.89 122.662 184.996 123.266 185.102C124.545 185.314 125.789 185.491 126.18 185.491C126.678 185.491 128.562 185.243 130.161 184.961C130.303 184.925 130.41 184.925 130.516 184.89L131.369 190.017C131.298 190.017 131.192 190.052 131.05 190.052C130.552 190.123 130.019 190.229 129.592 190.335C129.521 190.724 129.486 191.254 129.45 191.643C129.415 192.138 129.344 192.669 129.272 193.199C128.953 195.922 128.917 199.033 128.917 199.069Z" fill="white"/>
<path d="M129.166 230.573H123.977V284H129.166V230.573Z" fill="white"/>
<path d="M128.953 0H123.764V53.9572H128.953V0Z" fill="white"/>
<path d="M126.323 41.8644L100.128 15.8051L103.789 12.1278L126.323 34.5452L148.928 12.0571L152.588 15.6991L126.323 41.8644Z" fill="white"/>
<path d="M104.109 270.705L100.448 267.028L126.714 240.898L152.944 266.957L149.247 270.635L126.714 248.217L104.109 270.705Z" fill="white"/>
<path d="M47.7224 183.323L0.983398 209.635L3.53907 214.128L50.2781 187.816L47.7224 183.323Z" fill="white"/>
<path d="M249.45 69.7805L202.865 96.0062L205.421 100.499L252.005 74.2733L249.45 69.7805Z" fill="white"/>
<path d="M249.868 102.504L214.077 92.5686L223.993 57.0686L229.004 58.4476L220.474 88.9974L251.289 97.5188L249.868 102.504Z" fill="white"/>
<path d="M30.1447 226.33L25.0976 224.916L33.6634 194.401L2.84814 185.88L4.26984 180.894L40.061 190.795L30.1447 226.33Z" fill="white"/>
<path d="M3.82896 68.8389L1.24268 73.3146L48.8213 100.524L51.4076 96.0484L3.82896 68.8389Z" fill="white"/>
<path d="M205.452 184.158L202.866 188.634L248.719 214.857L251.305 210.381L205.452 184.158Z" fill="white"/>
<path d="M223.211 227.391L213.579 191.679L249.37 182.097L250.721 187.082L219.941 195.321L228.258 226.047L223.211 227.391Z" fill="white"/>
<path d="M4.23489 102.257L2.88428 97.2363L33.6284 88.9978L25.347 58.3065L30.3585 56.9629L40.026 92.675L4.23489 102.257Z" fill="white"/>
<path d="M126.571 235.276L45.3216 188.709L45.2505 95.4328L126.394 48.7241L207.643 95.2914L207.714 188.567L126.571 235.276ZM50.5463 185.703L126.571 229.265L202.525 185.562L202.454 98.2615L126.394 54.6997L50.4397 98.4029L50.5463 185.703Z" fill="white"/>
</svg>
