<svg width="225" height="286" viewBox="0 0 225 286" fill="none" xmlns="http://www.w3.org/2000/svg">
<path d="M89.9415 88.5247H84.6035C84.6035 88.5247 84.6035 85.9577 84.6035 85.151C84.6035 82.2906 84.7863 79.2836 85.1885 76.2398C85.6272 72.8294 86.2854 69.3456 87.1628 65.8618C87.8941 63.0015 89.6125 57.8675 89.649 57.6475L94.7311 59.3343C94.7311 59.371 93.0127 64.505 92.318 67.182C91.4771 70.4458 90.8555 73.7095 90.4534 76.8999C90.0878 79.7236 89.9049 82.5106 89.9049 85.151C89.9415 85.9577 89.9415 88.5247 89.9415 88.5247Z" fill="white"/>
<path d="M99.3377 49.4698L94.731 46.7561C96.5225 43.6757 98.5334 40.7787 100.069 39.0185C104.383 34.0312 109.136 31.4275 113.743 31.4275C118.569 31.4275 123.468 34.0312 127.856 39.0185C129.428 40.7787 131.768 44.1525 133.121 46.3527L128.55 49.1764C127.344 47.1962 125.187 44.1525 123.834 42.6123C121.494 39.9719 117.874 36.8549 113.743 36.8549C109.904 36.8549 106.358 39.9719 104.091 42.6123C102.775 44.0791 100.946 46.7194 99.3377 49.4698Z" fill="white"/>
<path d="M142.883 87.7913H137.545V83.8675C137.545 81.5938 137.399 79.2469 137.143 76.8266C136.814 73.6362 136.229 70.4091 135.461 67.182C134.693 63.9916 132.792 59.151 132.792 59.1143L137.764 57.134C137.837 57.3541 139.812 62.378 140.653 65.8985C141.494 69.3456 142.079 72.8294 142.444 76.2398C142.737 78.8435 142.883 81.3738 142.883 83.8308V87.7913Z" fill="white"/>
<path d="M114.986 73.2693L111.22 72.6092C110.782 72.5359 100.215 70.5923 92.4278 62.7813C84.6402 54.9703 82.7024 44.3722 82.6293 43.9322L81.9712 40.155L85.737 40.8151C86.1758 40.8885 96.7421 42.832 104.53 50.643C112.317 58.454 114.255 69.0521 114.328 69.4921L114.986 73.2693ZM96.2302 58.9674C99.9595 62.7079 104.53 64.8715 107.82 66.045C106.65 62.7446 104.457 58.1607 100.764 54.4202C97.0346 50.6797 92.4644 48.5161 89.1738 47.3426C90.3438 50.643 92.5009 55.227 96.2302 58.9674Z" fill="white"/>
<path d="M112.208 73.2693L112.866 69.4921C112.939 69.0521 114.877 58.454 122.664 50.643C130.452 42.832 141.018 40.8885 141.457 40.8151L145.223 40.155L144.565 43.9322C144.491 44.3722 142.554 54.9703 134.766 62.7813C126.978 70.5923 116.412 72.5359 115.973 72.6092L112.208 73.2693ZM126.43 54.4202C122.701 58.1607 120.544 62.7446 119.374 66.045C122.664 64.8715 127.234 62.6713 130.964 58.9674C134.693 55.227 136.85 50.643 138.057 47.3426C134.729 48.5161 130.159 50.6797 126.43 54.4202Z" fill="white"/>
<path d="M147.49 100.956L144.089 96.8123C150.926 91.2016 155.716 85.7376 158.714 81.7771C153.083 83.794 144.528 87.5712 135.205 94.3187C132.39 96.3356 129.794 98.5359 127.381 100.81L123.688 96.9224C126.247 94.4654 129.063 92.1184 132.061 89.9548C149.391 77.3765 163.979 74.5895 164.6 74.4428L170.121 73.416L167.452 78.3667C167.196 78.8801 161.273 89.6614 147.49 100.956Z" fill="white"/>
<path d="M78.8269 100.956C65.0432 89.6616 59.1202 78.8436 58.8643 78.4035L56.1953 73.4529L61.7161 74.4797C62.3377 74.5897 76.8892 77.3767 94.2559 89.9917C97.254 92.1553 100.069 94.5022 102.629 96.9592L98.9358 100.846C96.5593 98.5728 93.9269 96.3725 91.1116 94.3556C81.7884 87.608 73.2696 83.8309 67.6391 81.8139C70.6737 85.7745 75.4633 91.2752 82.2637 96.8492L78.8269 100.956Z" fill="white"/>
<path d="M110.672 286C101.86 286 94.6943 278.812 94.6943 269.975C94.6943 266.124 96.9977 262.127 99.4473 257.91C100.435 256.186 101.458 254.426 102.226 252.776C105.919 245.001 108.076 238.144 108.112 238.071L110.635 230.04L113.231 238.034C113.268 238.107 115.461 244.928 119.191 252.739C119.958 254.353 120.946 256.076 121.933 257.763C124.273 261.834 126.686 266.014 126.686 269.938C126.649 278.812 119.483 286 110.672 286ZM110.708 246.725C109.758 249.145 108.551 252.042 107.089 255.086C106.211 256.92 105.151 258.79 104.091 260.587C102.116 264.034 100.069 267.554 100.069 269.975C100.069 275.842 104.822 280.609 110.672 280.609C116.522 280.609 121.275 275.842 121.275 269.975C121.275 267.481 119.227 263.924 117.253 260.477C116.229 258.717 115.169 256.883 114.328 255.086C112.902 252.042 111.659 249.145 110.708 246.725Z" fill="white"/>
<path d="M44.7148 98.9027L44.6782 39.3117L112.427 0L180.285 39.2017L180.322 98.866L174.984 98.9027L174.911 42.3188L112.427 6.19746L50.0162 42.4288L50.0893 98.866L44.7148 98.9027Z" fill="white"/>
<path d="M127.381 234.403L97.6194 212.584V186.291L0 96.189H225L127.381 186.254V234.403ZM102.957 209.834L122.006 223.805V183.907L211.253 101.58H13.7472L102.994 183.907V209.834H102.957Z" fill="white"/>
</svg>
