<svg width="183" height="290" viewBox="0 0 183 290" fill="none" xmlns="http://www.w3.org/2000/svg">
<path d="M183 176.886H0V182.691H183V176.886Z" fill="white"/>
<path d="M52.5324 289.762L52.2916 244.516L16.2534 223.842L52.0909 202.213V197.76L57.9501 197.72V198.674L63.6087 195.255L66.6587 200.225L57.9903 205.473L58.1508 241.176L91.9416 260.579L124.769 241.852L124.97 205.95L115.659 200.225L118.749 195.255L125.01 199.072V197.72L130.869 197.76L130.829 202.69L166.626 224.637L130.588 245.192L130.348 289.324L91.9014 267.258L52.5324 289.762ZM58.1909 247.896L58.3514 279.703L86.0824 263.879L58.1909 247.896ZM97.8409 263.879L124.609 279.226L124.769 248.532L97.8409 263.879ZM130.869 209.489L130.709 238.433L155.229 224.438L130.869 209.489ZM27.7712 223.683L52.2916 237.717L52.1712 208.932L27.7712 223.683Z" fill="white"/>
<path d="M52.5322 290L15.8921 223.762L32.4263 194.818H150.935L167.068 224.557L130.829 289.523L52.5322 290ZM22.6342 223.802L55.9835 284.155L127.337 283.718L160.366 224.557L147.403 200.662H35.8776V200.702L22.6342 223.802Z" fill="white"/>
<path d="M137.531 163.806H45.9105L45.0276 162.454C39.5296 153.787 36.6401 143.767 36.6401 133.51C36.6401 121.185 45.4691 107.348 54.7796 92.6775C59.5553 85.2029 64.4915 77.45 67.9829 70.1344C82.5908 39.6792 88.7309 12.7625 88.8112 12.524L91.6605 0L94.5901 12.4842C94.6704 12.7625 101.011 39.5201 115.659 70.1344C119.111 77.3307 123.926 84.9246 128.622 92.2799C137.972 106.991 146.801 120.906 146.801 133.47C146.801 143.728 143.912 153.747 138.414 162.414L137.531 163.806ZM49.1612 158.001H134.2C138.574 150.606 140.862 142.137 140.862 133.51C140.862 122.616 132.073 108.78 123.565 95.4209C118.789 87.9065 113.853 80.1535 110.282 72.6392C100.971 53.1574 94.9112 35.1865 91.7007 24.3721C88.5303 35.2262 82.5908 53.2369 73.2803 72.6392C69.6283 80.2728 64.5717 88.1848 59.7158 95.8185C51.248 109.138 42.4592 122.894 42.4592 133.51C42.5395 142.137 44.827 150.566 49.1612 158.001Z" fill="white"/>
</svg>
