<svg width="282" height="278" viewBox="0 0 282 278" fill="none" xmlns="http://www.w3.org/2000/svg">
<path d="M251.926 278C250.204 278 248.574 277.546 247.079 276.683L134.885 211.578L164.734 159.876L276.928 224.981C279.193 226.298 280.823 228.433 281.457 230.978C282.092 233.522 281.774 236.157 280.461 238.429L260.441 273.139C259.127 275.41 257.044 277.001 254.507 277.682C253.647 277.909 252.786 278 251.926 278ZM140.592 210.033L249.163 273.048C250.431 273.775 251.926 274.002 253.42 273.593C254.87 273.23 256.093 272.276 256.817 271.004L276.837 236.293C277.607 235.021 277.789 233.476 277.381 232.023C277.019 230.569 276.067 229.342 274.799 228.615L166.229 165.601L140.592 210.033Z" fill="white"/>
<path d="M138.69 213.804L56.4812 166.1C51.8159 163.374 50.2306 157.377 52.903 152.698L72.923 117.988C75.6407 113.308 81.6195 111.718 86.2848 114.398L168.494 162.102L138.69 213.804ZM81.4383 117.215C79.4907 117.215 77.6336 118.215 76.5918 120.032L56.5718 154.742C55.0318 157.423 55.9377 160.876 58.61 162.42L137.196 208.034L162.832 163.601L84.2013 117.988C83.3407 117.488 82.3895 117.215 81.4383 117.215Z" fill="white"/>
<path d="M261.211 271.821L204.321 238.792C200.064 236.293 197.029 232.295 195.715 227.525C194.447 222.709 195.081 217.712 197.572 213.441C200.064 209.17 204.05 206.126 208.805 204.809C213.561 203.537 218.589 204.173 222.847 206.672L279.736 239.701L261.211 271.821ZM213.607 208.398C212.384 208.398 211.115 208.58 209.847 208.898C206.133 209.897 203.053 212.26 201.151 215.531C199.248 218.847 198.75 222.709 199.747 226.389C200.743 230.115 203.098 233.204 206.36 235.112L259.626 266.052L273.939 241.2L220.673 210.261C218.544 209.034 216.098 208.398 213.607 208.398Z" fill="white"/>
<path d="M149.063 195.813L58.5649 143.294L67.6238 127.619L158.122 180.139L149.063 195.813ZM64.272 141.749L147.523 190.043L152.369 181.638L69.1185 133.389L64.272 141.749Z" fill="white"/>
<path d="M51.7704 163.42L0.225586 133.48L30.0745 81.7781L81.6193 111.718L51.7704 163.42ZM5.93266 131.981L50.2304 157.695L75.867 113.263L31.5692 87.548L5.93266 131.981Z" fill="white"/>
<path d="M257.134 190.906H252.967V126.756C252.967 103.767 243.32 93.9539 220.627 93.9539C219.812 93.9539 219.087 93.9539 218.272 93.9085C217.275 93.863 216.143 93.863 214.648 93.863C189.284 92.7727 179.908 82.0052 179.908 54.0644V0H184.075V54.0644C184.075 82.8684 194.855 88.8201 214.694 89.6833C216.007 89.547 217.321 89.7287 218.363 89.7287C219.133 89.7741 219.857 89.7741 220.627 89.7741C245.539 89.7741 257.134 101.541 257.134 126.801V190.906Z" fill="white"/>
<path d="M270.632 198.448H266.465V121.304C266.465 102.495 254.825 80.5514 221.986 80.5514C221.171 80.5514 220.446 80.506 219.586 80.506C218.589 80.4605 217.457 80.4605 215.917 80.4605C206.45 80.4605 199.43 78.9613 196.123 71.6921C193.406 65.6496 193.406 56.4269 193.406 41.0708V0H197.573V41.0708C197.573 55.3365 197.573 64.741 199.928 69.9657C201.74 73.9637 204.956 76.2353 215.917 76.2353C217.457 76.2353 218.635 76.2808 219.676 76.2808C220.492 76.2808 221.171 76.3262 221.941 76.3262C257.859 76.3262 270.632 100.542 270.632 121.304V198.448Z" fill="white"/>
<path d="M243.773 182.229H239.606V135.252C239.606 133.707 239.606 132.162 239.651 130.709C239.742 122.076 239.832 115.262 236.027 111.4C233.219 108.583 228.192 107.175 220.537 107.175L214.558 107.084C183.079 107.084 166.456 88.9109 166.456 54.4733V0H170.623V54.4278C170.623 86.5484 185.389 102.813 214.558 102.813L220.537 102.904C229.46 102.904 235.348 104.63 239.017 108.356C244.045 113.49 243.954 121.44 243.863 130.709C243.818 132.162 243.818 133.662 243.818 135.206V182.229H243.773Z" fill="white"/>
</svg>
