<svg width="81" height="80" viewBox="0 0 81 80" fill="none" xmlns="http://www.w3.org/2000/svg">
<g clip-path="url(#clip0)">
<path d="M7.0348 51.256C-4.85867 41.0905 1.94315 30.5355 17.1015 25.5111C17.1015 25.5111 17.8011 11.3339 42.6764 0.895752C42.6764 0.895752 38.6341 15.6572 57.9902 23.4079C69.2618 27.9259 78.4345 26.9912 79.9115 40.8568C81.5051 55.7351 57.9902 60.5647 57.9902 60.5647C57.9902 60.5647 48.6231 77.702 25.7301 78.9873C25.7301 78.9873 36.03 71.0418 31.2104 64.7711C23.4758 54.6835 15.1193 58.1109 7.0348 51.256Z" stroke="black" stroke-width="2" stroke-miterlimit="10" stroke-linejoin="bevel"/>
<path d="M17.0239 25.3943C16.8295 40.8957 36.7686 36.183 44.7753 49.2696C51.3828 60.0584 48.6621 74.1577 25.7302 78.9873" stroke="black" stroke-width="2" stroke-miterlimit="10" stroke-linejoin="bevel"/>
<path d="M57.9897 60.6036C67.007 53.1645 73.8088 37.0009 57.601 31.8597C47.4955 28.627 29.9273 29.2502 42.0151 2.21997" stroke="black" stroke-width="2" stroke-miterlimit="10" stroke-linejoin="bevel"/>
<path d="M40.9274 1.98633C21.3381 21.6942 22.2321 28.7828 39.9557 33.4566C58.3401 38.2862 61.9936 52.5024 58.0291 60.6037" stroke="black" stroke-width="2" stroke-miterlimit="10" stroke-linejoin="bevel"/>
<path d="M25.7686 79.0261C44.8137 70.9638 42.2484 61.0319 34.5138 52.9696C29.3055 47.5558 19.9773 46.5821 13.6808 41.1683C6.91783 35.326 16.2072 26.0173 16.2072 26.0173" stroke="black" stroke-width="2" stroke-miterlimit="10" stroke-linejoin="bevel"/>
</g>
<defs>
<clipPath id="clip0">
<path d="M0 0H81V80H0V0Z" fill="white"/>
</clipPath>
</defs>
</svg>
