<svg width="77" height="78" viewBox="0 0 77 78" fill="none" xmlns="http://www.w3.org/2000/svg">
<path d="M48.1592 38.6591C48.1592 43.5654 43.8763 48.3353 38.5 48.5624C33.1692 48.7896 28.8408 44.0196 28.8408 38.6591C28.8408 33.2532 33.1237 29.7552 38.5 29.9824C43.8763 30.2549 48.1592 33.7529 48.1592 38.6591Z" stroke="black" stroke-width="2" stroke-miterlimit="10" stroke-linejoin="bevel"/>
<path d="M75.8614 29.3465C75.9981 45.8823 60.1881 72.8211 38.5005 76.5008C16.8129 80.4985 1.00286 53.5596 1.13955 29.3465C1.00286 4.8153 16.8129 -1.54463 38.5005 2.08962C60.1881 6.08729 76.0437 12.4472 75.8614 29.3465Z" stroke="black" stroke-width="2" stroke-miterlimit="10" stroke-linejoin="bevel"/>
<path d="M66.9767 33.7075C67.0223 46.8816 54.6749 65.1437 38.5004 67.188C22.3258 69.414 9.97849 51.1519 10.0241 33.7075C9.97849 16.036 22.3258 9.31263 38.5004 11.4023C54.6749 13.6283 67.0223 20.3516 66.9767 33.7075Z" stroke="black" stroke-width="2" stroke-miterlimit="10" stroke-linejoin="bevel"/>
<path d="M57.6822 36.7967C57.6822 46.064 49.2076 56.9668 38.5005 57.8753C27.7934 58.8748 19.3188 47.972 19.3188 36.7967C19.3188 25.5305 27.7934 19.7612 38.5005 20.6697C49.2532 21.6692 57.7277 27.4385 57.6822 36.7967Z" stroke="black" stroke-width="2" stroke-miterlimit="10" stroke-linejoin="bevel"/>
</svg>
