<svg width="98" height="93" viewBox="0 0 98 93" fill="none" xmlns="http://www.w3.org/2000/svg">
<g opacity="0.5">
<path d="M68.3379 17.7935L74.7945 7.3606" stroke="black" stroke-width="2" stroke-miterlimit="10"/>
<path d="M50.5662 0.0639648L50.1826 12.289" stroke="black" stroke-width="2" stroke-miterlimit="10"/>
<path d="M7.35107 23.1699L17.7712 29.6345" stroke="black" stroke-width="2" stroke-miterlimit="10"/>
<path d="M74.7945 7.3606L68.3379 17.7935" stroke="black" stroke-width="2" stroke-miterlimit="10"/>
<path d="M81.3789 31.6826L92.1826 25.9221" stroke="black" stroke-width="2" stroke-miterlimit="10"/>
<path d="M92.1826 25.9221L81.3789 31.6826C84.3835 37.3791 85.9177 43.7797 85.7259 50.2442L97.936 50.6282" stroke="black" stroke-width="2" stroke-miterlimit="10"/>
<path d="M97.9356 50.6284L85.7256 50.2444" stroke="black" stroke-width="2" stroke-miterlimit="10"/>
<path d="M80.2285 68.4219L90.5847 74.8864" stroke="black" stroke-width="2" stroke-miterlimit="10"/>
<path d="M50.1826 12.289L50.5662 0.0639648" stroke="black" stroke-width="2" stroke-miterlimit="10"/>
<path d="M72.1099 92.2959L66.3564 81.479" stroke="black" stroke-width="2" stroke-miterlimit="10"/>
<path d="M0.0639648 47.492L12.274 47.876C12.4658 41.6035 14.2557 35.331 17.7717 29.6345L7.35164 23.1699" stroke="black" stroke-width="2" stroke-miterlimit="10"/>
<path d="M90.5847 74.8864L80.2285 68.4219" stroke="black" stroke-width="2" stroke-miterlimit="10"/>
<path d="M66.3564 81.479L72.1099 92.2959" stroke="black" stroke-width="2" stroke-miterlimit="10"/>
<path d="M16.6205 66.4377L5.81689 72.1982" stroke="black" stroke-width="2" stroke-miterlimit="10"/>
<path d="M12.274 47.876L0.0639648 47.4919" stroke="black" stroke-width="2" stroke-miterlimit="10"/>
<path d="M5.81689 72.1982L16.6205 66.4377" stroke="black" stroke-width="2" stroke-miterlimit="10"/>
<path d="M50.1829 12.2888L49.7993 24.5779" stroke="black" stroke-width="2" stroke-miterlimit="10"/>
<path d="M61.8809 28.2264L68.3375 17.7935" stroke="black" stroke-width="2" stroke-miterlimit="10"/>
<path d="M37.4609 27.4585L31.6436 16.6416" stroke="black" stroke-width="2" stroke-miterlimit="10"/>
<path d="M17.772 29.6345L28.1921 36.0991" stroke="black" stroke-width="2" stroke-miterlimit="10"/>
<path d="M31.6436 16.6412L37.4609 27.4581C41.2326 25.4099 45.5157 24.4499 49.7988 24.5779L50.1824 12.2888" stroke="black" stroke-width="2" stroke-miterlimit="10"/>
<path d="M28.1912 36.0991L17.7712 29.6345C14.2552 35.331 12.4652 41.6035 12.2734 47.8761L24.5474 48.2601" stroke="black" stroke-width="2" stroke-miterlimit="10"/>
<path d="M68.3375 17.7935L61.8809 28.2264C65.6525 30.5946 68.5932 33.7948 70.511 37.5072L81.3146 31.6827" stroke="black" stroke-width="2" stroke-miterlimit="10"/>
<path d="M73.4519 49.8602L85.7259 50.2442C85.9177 43.7797 84.4473 37.3791 81.3788 31.6826L70.5752 37.5071" stroke="black" stroke-width="2" stroke-miterlimit="10"/>
<path d="M80.2286 68.4218L69.8085 61.9573C67.4432 65.7336 64.2468 68.6778 60.5391 70.598L66.3564 81.4149" stroke="black" stroke-width="2" stroke-miterlimit="10"/>
<path d="M85.7254 50.2444L73.4514 49.8604C73.3236 54.0207 72.1729 58.1811 69.8076 62.0214L80.2277 68.4859" stroke="black" stroke-width="2" stroke-miterlimit="10"/>
<path d="M66.3564 81.479L60.5391 70.6621" stroke="black" stroke-width="2" stroke-miterlimit="10"/>
<path d="M16.6211 66.4378L27.4247 60.6133" stroke="black" stroke-width="2" stroke-miterlimit="10"/>
<path d="M24.5474 48.26L12.2734 47.876" stroke="black" stroke-width="2" stroke-miterlimit="10"/>
<path d="M36.0552 69.8938L29.5986 80.3267" stroke="black" stroke-width="2" stroke-miterlimit="10"/>
<path d="M29.5983 80.327L36.0549 69.8941C32.2832 67.5259 29.3426 64.3256 27.4247 60.6133L16.6211 66.4378" stroke="black" stroke-width="2" stroke-miterlimit="10"/>
<path d="M38.6118 42.5636C42.1917 36.8031 49.7351 35.0109 55.4885 38.5953L61.9451 28.1624" stroke="black" stroke-width="2" stroke-miterlimit="10"/>
<path d="M49.7993 24.5782L49.3518 36.8032L49.7993 24.5782ZM49.7993 24.5782C45.4523 24.4502 41.2331 25.4103 37.4614 27.4584L43.2149 38.2754L37.4614 27.4584" stroke="black" stroke-width="2" stroke-miterlimit="10"/>
<path d="M27.4248 60.6133L38.2285 54.8528L27.4248 60.6133ZM27.4248 60.6133C29.4065 64.2616 32.2833 67.5259 36.0549 69.8941L42.5116 59.4612C36.7581 55.8769 34.9682 48.3242 38.5481 42.5637" stroke="black" stroke-width="2" stroke-miterlimit="10"/>
<path d="M24.5479 48.2603L36.7579 48.6443L24.5479 48.2603Z" stroke="black" stroke-width="2" stroke-miterlimit="10"/>
<path d="M70.575 37.5074L59.7714 43.2679L70.575 37.5074ZM70.575 37.5074C68.5933 33.859 65.7166 30.5948 61.9449 28.2266L55.4243 38.6595C61.1777 42.2438 62.9677 49.7964 59.3878 55.5569" stroke="black" stroke-width="2" stroke-miterlimit="10"/>
<path d="M69.8084 61.9572C72.1737 58.1809 73.3244 53.9565 73.4522 49.7961L61.2422 49.4121L73.4522 49.7961" stroke="black" stroke-width="2" stroke-miterlimit="10"/>
<path d="M60.5391 70.6621L54.7856 59.8452L60.5391 70.6621ZM60.5391 70.6621C64.1829 68.678 67.4432 65.7977 69.8085 62.0214" stroke="black" stroke-width="2" stroke-miterlimit="10"/>
<path d="M59.3875 55.4927C55.8076 61.2532 48.2642 63.0453 42.5108 59.461L36.0542 69.8939" stroke="black" stroke-width="2" stroke-miterlimit="10"/>
<path d="M48.9683 61.3171C55.747 61.3171 61.2423 55.8151 61.2423 49.0281C61.2423 42.241 55.747 36.739 48.9683 36.739C42.1896 36.739 36.6943 42.241 36.6943 49.0281C36.6943 55.8151 42.1896 61.3171 48.9683 61.3171Z" stroke="black" stroke-width="2" stroke-miterlimit="10"/>
<path d="M69.8083 61.9572L59.3882 55.4927" stroke="black" stroke-width="2" stroke-miterlimit="10"/>
<path d="M28.1914 36.0991L38.6115 42.5637" stroke="black" stroke-width="2" stroke-miterlimit="10"/>
</g>
</svg>
