<svg width="87" height="69" viewBox="0 0 87 69" fill="none" xmlns="http://www.w3.org/2000/svg">
<g opacity="0.5">
<g clip-path="url(#clip0)">
<path d="M74.654 55.6216H70.1943V59.997H74.654V55.6216Z" stroke="black" stroke-width="2" stroke-miterlimit="10"/>
<path d="M48.2487 53.4497H43.7891V57.8252H48.2487V53.4497Z" stroke="black" stroke-width="2" stroke-miterlimit="10"/>
<path d="M65.7668 63.8376H61.3071V68.2131H65.7668V63.8376Z" stroke="#212721" stroke-width="2" stroke-miterlimit="10"/>
<path d="M82.3543 44.4785V40.103H78.6647V35.759H75.0071V31.3836H71.3174V27.0081H67.6277V22.6327H63.9702V18.2572H60.2805V13.8818H56.5908V9.53778H52.9332V5.16232H49.2436V0.786865H45.5539H41.8963H38.2067V5.16232H34.517V9.53778H30.8273V13.8818H27.1697V18.2572H23.4801V22.6327H19.7904V27.0081H16.1328V31.3836H12.4432V35.759H8.7535V40.103H5.09592V44.4785H1.40625V48.8539H5.09592H8.7535H12.4432H16.1328H19.7904H23.4801H27.1697H30.8273H34.517H38.2067H41.8963H45.5539H49.2436H52.9332H56.5908H60.2805H63.9702H67.6277H71.3174H75.0071H78.6647H82.3543H86.044V44.4785H82.3543Z" stroke="black" stroke-width="2" stroke-miterlimit="10"/>
</g>
</g>
<defs>
<clipPath id="clip0">
<rect x="0.604492" width="86.242" height="69" fill="white"/>
</clipPath>
</defs>
</svg>
