<svg width="87" height="84" viewBox="0 0 87 84" fill="none" xmlns="http://www.w3.org/2000/svg">
<g opacity="0.5">
<g clip-path="url(#clip0)">
<path d="M81.6284 58.9831C81.6284 58.9831 81.6284 48.8588 81.6284 41.568C81.6284 34.2772 78.6442 30.1653 70.1829 30.1653C69.586 30.1653 69.0945 30.1307 68.1817 30.1307C60.8439 29.8198 57.333 27.2282 57.333 17.8296C57.333 7.7054 57.333 0.86377 57.333 0.86377" stroke="black" stroke-width="2" stroke-miterlimit="10" stroke-linecap="square"/>
<path d="M86.1226 61.5055C86.1226 61.5055 86.1226 47.0966 86.1226 39.8058C86.1226 33.828 82.4713 25.8115 70.6045 25.8115C70.0076 25.8115 69.5161 25.777 68.6033 25.777C61.5815 25.777 61.8272 23.1163 61.8272 12.5775C61.8272 2.45324 61.8272 0.86377 61.8272 0.86377" stroke="black" stroke-width="2" stroke-miterlimit="10" stroke-linecap="square"/>
<path d="M77.1693 56.1152C77.1693 56.1152 77.1693 51.6232 77.1693 44.367C77.1693 38.6311 77.9768 34.5192 70.1124 34.5192C69.972 34.5192 68.2868 34.4846 68.1112 34.4846C58.2105 34.4846 52.8037 29.1633 52.8037 18.0025C52.8037 7.87828 52.8037 0.898438 52.8037 0.898438" stroke="black" stroke-width="2" stroke-miterlimit="10" stroke-linecap="square"/>
<path d="M42.166 63.7516L50.4868 49.239L84.8936 68.3472C86.0171 68.9692 86.4384 70.3859 85.7713 71.4916L79.7677 81.9613C79.1357 83.0671 77.6963 83.4817 76.5728 82.8252L42.166 63.7516Z" stroke="black" stroke-width="2" stroke-miterlimit="10" stroke-linecap="square"/>
<path d="M50.5569 49.2389L42.236 63.7514L17.9406 50.2409C16.8171 49.619 16.3958 48.2023 17.0629 47.0966L23.0665 36.6268C23.6985 35.5211 25.138 35.1064 26.2615 35.7629L50.5569 49.2389Z" stroke="black" stroke-width="2" stroke-miterlimit="10" stroke-linecap="square"/>
<path d="M62.5293 65.4791C63.9687 62.9567 67.2339 62.0583 69.7968 63.475L85.4203 72.1479L80.154 81.3047L64.5305 72.6317C61.9675 71.215 61.0547 67.9669 62.5293 65.4791Z" stroke="black" stroke-width="2" stroke-miterlimit="10" stroke-linecap="square"/>
<path d="M45.3511 58.3378L47.4399 54.697L21.1473 40.0856L19.0584 43.7264L45.3511 58.3378Z" stroke="black" stroke-width="2" stroke-miterlimit="10" stroke-linecap="square"/>
<path d="M15.9326 49.1508L24.2534 34.6477L9.51729 26.4585L1.19649 40.9616L15.9326 49.1508Z" stroke="black" stroke-width="2" stroke-miterlimit="10" stroke-linecap="square"/>
</g>
</g>
<defs>
<clipPath id="clip0">
<path d="M0 0H87V84H0V0Z" fill="white"/>
</clipPath>
</defs>
</svg>
